<svg version="1.1" id="Layer_1" xmlns="http://www.w3.org/2000/svg" xmlns:xlink="http://www.w3.org/1999/xlink" x="0px" y="0px"
	 width="100%" viewBox="0 0 500 500" enable-background="new 0 0 500 500" xml:space="preserve">
<path fill="#918BEE" opacity="1.000000" stroke="none" 
	d="
M501.000000,143.000000 
	C501.000000,262.666626 501.000000,381.833282 501.000000,500.999939 
	C334.333405,500.999939 167.666809,500.999939 1.000153,500.999969 
	C1.000102,334.333435 1.000102,167.666885 1.000051,1.000243 
	C167.666519,1.000162 334.333038,1.000162 500.999756,1.000081 
	C501.000000,48.166668 501.000000,95.333336 501.000000,143.000000 
M424.873901,156.500000 
	C424.873901,109.504501 424.875214,62.509007 424.872528,15.513508 
	C424.872131,8.841702 424.863281,8.834714 418.008118,8.834624 
	C305.685425,8.833154 193.362747,8.833580 81.040062,8.833579 
	C79.069984,8.833579 77.099907,8.833579 74.734253,8.833579 
	C74.734253,169.074966 74.734253,328.781006 74.734253,489.017609 
	C77.045410,489.017609 79.008476,489.017639 80.971550,489.017639 
	C193.294220,489.017639 305.616913,489.017883 417.939575,489.016998 
	C424.868591,489.016937 424.873230,489.012665 424.873291,481.969238 
	C424.874176,373.812836 424.873779,265.656403 424.873901,156.500000 
z"/>
<path fill="#FBFAFE" opacity="1.000000" stroke="none" 
	d="
M424.873779,157.000000 
	C424.873779,265.656403 424.874176,373.812836 424.873291,481.969238 
	C424.873230,489.012665 424.868591,489.016937 417.939575,489.016998 
	C305.616913,489.017883 193.294220,489.017639 80.971550,489.017639 
	C79.008476,489.017639 77.045410,489.017609 74.734253,489.017609 
	C74.734253,328.781006 74.734253,169.074966 74.734253,8.833579 
	C77.099907,8.833579 79.069984,8.833579 81.040062,8.833579 
	C193.362747,8.833580 305.685425,8.833154 418.008118,8.834624 
	C424.863281,8.834714 424.872131,8.841702 424.872528,15.513508 
	C424.875214,62.509007 424.873901,109.504501 424.873779,157.000000 
M81.642502,252.499939 
	C81.642807,326.990875 81.687195,401.481903 81.541428,475.972534 
	C81.531990,480.793518 82.861732,482.100403 87.680328,482.094452 
	C195.833771,481.960724 303.987427,481.993378 412.141052,481.978333 
	C413.887939,481.978088 415.634827,481.775360 417.782349,481.642273 
	C417.782349,479.093689 417.782349,477.118286 417.782349,475.142914 
	C417.782349,324.327789 417.782715,173.512650 417.781189,22.697510 
	C417.781097,15.878163 417.773132,15.870440 411.060089,15.870337 
	C303.573059,15.868705 196.086014,15.868622 88.598984,15.870517 
	C81.652420,15.870639 81.644562,15.879463 81.644333,23.027477 
	C81.641884,99.184952 81.642120,175.342438 81.642502,252.499939 
z"/>
<path fill="#938EEE" opacity="1.000000" stroke="none" 
	d="
M81.642059,251.999924 
	C81.642120,175.342438 81.641884,99.184952 81.644333,23.027477 
	C81.644562,15.879463 81.652420,15.870639 88.598984,15.870517 
	C196.086014,15.868622 303.573059,15.868705 411.060089,15.870337 
	C417.773132,15.870440 417.781097,15.878163 417.781189,22.697510 
	C417.782715,173.512650 417.782349,324.327789 417.782349,475.142914 
	C417.782349,477.118286 417.782349,479.093689 417.782349,481.642273 
	C415.634827,481.775360 413.887939,481.978088 412.141052,481.978333 
	C303.987427,481.993378 195.833771,481.960724 87.680328,482.094452 
	C82.861732,482.100403 81.531990,480.793518 81.541428,475.972534 
	C81.687195,401.481903 81.642807,326.990875 81.642059,251.999924 
M264.500000,465.134033 
	C309.548401,465.134033 354.596832,465.134033 399.609863,465.134033 
	C399.609863,320.231201 399.609863,176.349335 399.609863,32.373512 
	C298.603302,32.373512 197.952087,32.373512 97.336807,32.373512 
	C97.336807,176.765045 97.336807,320.648834 97.336807,465.134277 
	C152.958374,465.134277 208.229187,465.134277 264.500000,465.134033 
z"/>
<path fill="#FFFFFF" opacity="1.000000" stroke="none" 
	d="
M264.000000,465.134155 
	C208.229187,465.134277 152.958374,465.134277 97.336807,465.134277 
	C97.336807,320.648834 97.336807,176.765045 97.336807,32.373512 
	C197.952087,32.373512 298.603302,32.373512 399.609863,32.373512 
	C399.609863,176.349335 399.609863,320.231201 399.609863,465.134033 
	C354.596832,465.134033 309.548401,465.134033 264.000000,465.134155 
M208.018311,442.370117 
	C207.793762,445.446503 207.569214,448.522858 207.329315,451.809570 
	C213.109497,451.809570 218.392883,451.809570 224.189362,451.809570 
	C225.356033,437.701965 226.515213,423.685028 227.674377,409.668060 
	C229.080948,410.934143 229.667572,412.256927 230.145233,413.617950 
	C234.164276,425.069702 238.328888,436.474731 242.072479,448.016174 
	C243.270020,451.708282 245.596039,451.684662 248.532288,451.694061 
	C251.481964,451.703522 253.913330,451.731812 254.985031,448.006897 
	C256.729401,441.944000 259.010193,436.034149 261.101990,430.072845 
	C263.493378,423.257782 265.925690,416.457062 268.340210,409.650116 
	C268.695923,409.692139 269.051666,409.734161 269.407379,409.776184 
	C270.561859,423.762360 271.716339,437.748566 272.863068,451.640747 
	C278.850861,451.640747 284.262604,451.640747 289.895874,451.640747 
	C287.629517,426.657684 285.398254,402.061584 283.147705,377.253021 
	C277.820099,377.253021 273.328339,377.414886 268.855530,377.193573 
	C266.079346,377.056274 264.717926,378.004822 263.758881,380.645477 
	C260.581024,389.395172 257.151855,398.053925 253.789291,406.735992 
	C252.164536,410.931030 250.473267,415.100281 248.476974,420.124756 
	C243.193069,406.432373 238.340424,393.701813 233.312378,381.040894 
	C232.735474,379.588226 231.253204,377.539398 230.064514,377.450256 
	C224.819916,377.057098 219.529099,377.280334 213.905411,377.280334 
	C211.924835,399.056580 209.996872,420.254242 208.018311,442.370117 
M272.518677,113.939140 
	C270.397583,109.710693 268.276520,105.482239 266.180176,101.303101 
	C252.425613,107.899452 239.784058,106.448471 232.317291,97.893387 
	C225.669174,90.276291 224.687057,79.760040 230.847702,71.731079 
	C233.529755,68.235664 237.597397,65.200256 241.679260,63.508858 
	C249.931763,60.089237 258.250916,61.779564 266.214417,66.063484 
	C268.657959,61.144711 270.920288,56.590755 273.275757,51.849285 
	C264.900238,46.276108 256.036499,44.684372 246.730652,45.075890 
	C218.526550,46.262512 199.682053,76.089638 212.278793,100.037834 
	C224.847260,123.932281 251.669708,126.727982 269.888916,117.540573 
	C271.056671,116.951714 271.843933,115.608276 272.518677,113.939140 
M135.709229,270.733582 
	C134.034470,266.394592 132.756088,261.829742 130.479156,257.833862 
	C129.633194,256.349274 126.489243,255.879913 124.308617,255.594833 
	C123.437134,255.480911 121.557823,257.033051 121.460976,257.964447 
	C120.402138,268.147583 119.605499,278.358002 118.729553,288.655365 
	C121.641556,288.655365 123.848587,288.655365 126.267609,288.655365 
	C126.806480,282.804535 127.314751,277.285950 127.823013,271.767365 
	C130.396561,276.147064 131.834229,280.701538 133.705292,285.070404 
	C134.352722,286.582123 136.076706,287.632751 137.308945,288.894012 
	C138.501923,287.568329 140.144089,286.432770 140.801300,284.880280 
	C142.574966,280.690582 143.929184,276.323303 145.449829,272.026459 
	C145.817490,272.070435 146.185165,272.114410 146.552826,272.158386 
	C147.101379,277.632294 147.649933,283.106171 148.199677,288.591980 
	C150.856018,288.591980 153.217743,288.591980 155.767868,288.591980 
	C154.749924,277.428497 153.772079,266.704620 152.804245,256.090546 
	C144.974075,254.581100 144.899475,254.620712 142.256271,261.463928 
	C140.939774,264.872284 139.664169,268.298157 138.220581,271.651764 
	C138.125809,271.871948 136.753235,271.542145 135.709229,270.733582 
M327.041595,260.507050 
	C320.603149,254.461685 313.363525,253.196289 306.577301,256.930176 
	C299.721069,260.702576 296.399506,268.400574 298.098419,276.580536 
	C299.547302,283.556427 305.334045,288.830475 312.768616,289.539062 
	C319.656464,290.195496 325.328674,287.644836 328.814209,281.608307 
	C332.846710,274.624420 332.403534,267.627533 327.041595,260.507050 
M260.304138,280.795563 
	C260.580475,279.843658 260.856812,278.891754 261.237335,277.580963 
	C266.839661,282.651642 268.933197,292.473114 279.583038,288.191620 
	C276.057587,283.931213 272.605408,279.759369 269.128540,275.557678 
	C270.522400,274.466888 271.812500,273.668304 272.842773,272.615448 
	C277.990723,267.354584 275.753845,257.680206 268.687164,256.228638 
	C263.639069,255.191711 258.303711,255.553238 252.897186,255.280716 
	C252.897186,266.997284 252.897186,277.757599 252.897186,288.765869 
	C255.349106,288.765869 257.608521,288.765869 260.297638,288.765869 
	C260.297638,286.289581 260.297638,283.982788 260.304138,280.795563 
M319.675110,199.712967 
	C315.789093,199.712967 311.903107,199.712967 307.936523,199.712967 
	C307.936523,211.059784 307.936523,221.811783 307.936523,232.529388 
	C322.391357,234.621490 331.815948,230.107803 333.881958,220.244583 
	C335.949646,210.373154 330.666992,202.316010 319.675110,199.712967 
M272.219513,224.273849 
	C279.985321,234.201599 279.985321,234.201599 288.037842,232.170975 
	C284.539062,227.902451 281.136353,223.751114 277.656006,219.505096 
	C278.638794,218.779175 279.154968,218.372116 279.696411,218.002060 
	C283.830566,215.176575 284.803558,211.090790 283.700623,206.583237 
	C282.565399,201.943604 278.978302,199.872482 274.445312,199.648178 
	C270.180115,199.437134 265.896240,199.602936 261.386902,199.602936 
	C261.386902,210.892502 261.386902,221.751343 261.386902,232.743103 
	C263.940369,232.743103 266.181671,232.743103 269.089661,232.743103 
	C269.089661,228.840775 269.089661,225.181274 269.089661,220.575485 
	C270.521759,222.217468 271.162384,222.952011 272.219513,224.273849 
M365.000824,282.544708 
	C368.114746,287.832123 372.133972,290.998871 379.065491,288.185486 
	C375.572357,283.938324 372.157684,279.786591 368.717529,275.603851 
	C370.229279,274.361603 371.498749,273.533325 372.502533,272.457245 
	C377.414093,267.191925 375.317902,257.811676 368.457184,256.311432 
	C363.275055,255.178299 357.761047,255.562927 352.353149,255.269791 
	C352.353149,267.050415 352.353149,277.789917 352.353149,288.595032 
	C354.990021,288.595032 357.338776,288.595032 360.166504,288.595032 
	C360.166504,284.646179 360.166504,281.120239 360.166504,276.537872 
	C362.113190,278.947693 363.335632,280.460938 365.000824,282.544708 
M206.076752,264.570770 
	C206.076752,272.646088 206.076752,280.721436 206.076752,288.638306 
	C209.134567,288.638306 211.372864,288.638306 214.085419,288.638306 
	C214.085419,284.721252 214.085419,281.170776 214.085419,276.212097 
	C217.358749,280.445007 219.795944,283.523529 222.152649,286.662476 
	C225.196457,290.716614 229.048721,288.661194 233.448853,288.655792 
	C229.545624,283.904938 226.187103,279.817047 222.695053,275.566650 
	C223.697525,274.808289 224.480698,274.237610 225.240524,273.637360 
	C228.973557,270.688263 229.782806,266.703583 228.659927,262.408813 
	C227.574738,258.258148 224.417923,256.014374 220.231537,255.775177 
	C215.643143,255.512970 211.028198,255.715485 206.076752,255.715485 
	C206.076752,258.638092 206.076752,261.117706 206.076752,264.570770 
M233.575531,210.850098 
	C232.500977,208.236404 231.242783,205.680023 230.404221,202.992706 
	C229.587326,200.374817 228.221710,199.357864 225.384155,199.327789 
	C222.475418,199.296967 221.269485,200.568558 220.349762,203.031494 
	C218.489319,208.013550 216.390594,212.906250 214.415115,217.845779 
	C212.472214,222.703796 210.560226,227.574158 208.064148,233.880524 
	C211.998642,232.886902 214.942719,232.834427 216.943573,231.434143 
	C218.764252,230.159958 217.919785,226.025681 221.862976,226.250107 
	C224.519333,226.401276 227.206375,226.136658 229.845505,226.400238 
	C230.758621,226.491455 232.161453,227.487656 232.331329,228.285370 
	C233.588501,234.189117 237.653564,233.311340 242.275116,232.588654 
	C239.401535,225.392395 236.639587,218.475693 233.575531,210.850098 
M190.609314,204.042145 
	C190.133881,202.883087 189.989517,201.152069 189.130875,200.655075 
	C182.002167,196.528885 171.123825,199.289612 165.862411,206.356827 
	C160.738571,213.239273 161.507477,221.899719 167.465714,228.152496 
	C173.153015,234.120956 185.139633,235.745499 191.327408,230.095978 
	C190.436264,228.310837 189.499084,226.433502 188.508881,224.449921 
	C186.780197,224.977142 185.393219,225.536560 183.951950,225.817001 
	C176.181656,227.329071 169.708496,221.597107 171.022476,214.425293 
	C172.102539,208.530289 178.087677,205.189957 185.110474,207.174225 
	C188.080490,208.013367 189.394501,207.376480 190.609314,204.042145 
M176.070709,282.382141 
	C176.070709,284.480774 176.070709,286.579407 176.070709,288.723206 
	C178.983704,288.723206 181.223816,288.723206 183.573517,288.723206 
	C183.573517,277.581451 183.573517,266.742096 183.573517,255.764099 
	C180.981384,255.764099 178.748184,255.764099 176.070709,255.764099 
	C176.070709,264.541840 176.070709,272.974152 176.070709,282.382141 
z"/>
<path fill="#FF644E" opacity="1.000000" stroke="none" 
	d="
M208.043610,441.911011 
	C209.996872,420.254242 211.924835,399.056580 213.905411,377.280334 
	C219.529099,377.280334 224.819916,377.057098 230.064514,377.450256 
	C231.253204,377.539398 232.735474,379.588226 233.312378,381.040894 
	C238.340424,393.701813 243.193069,406.432373 248.476974,420.124756 
	C250.473267,415.100281 252.164536,410.931030 253.789291,406.735992 
	C257.151855,398.053925 260.581024,389.395172 263.758881,380.645477 
	C264.717926,378.004822 266.079346,377.056274 268.855530,377.193573 
	C273.328339,377.414886 277.820099,377.253021 283.147705,377.253021 
	C285.398254,402.061584 287.629517,426.657684 289.895874,451.640747 
	C284.262604,451.640747 278.850861,451.640747 272.863068,451.640747 
	C271.716339,437.748566 270.561859,423.762360 269.407379,409.776184 
	C269.051666,409.734161 268.695923,409.692139 268.340210,409.650116 
	C265.925690,416.457062 263.493378,423.257782 261.101990,430.072845 
	C259.010193,436.034149 256.729401,441.944000 254.985031,448.006897 
	C253.913330,451.731812 251.481964,451.703522 248.532288,451.694061 
	C245.596039,451.684662 243.270020,451.708282 242.072479,448.016174 
	C238.328888,436.474731 234.164276,425.069702 230.145233,413.617950 
	C229.667572,412.256927 229.080948,410.934143 227.674377,409.668060 
	C226.515213,423.685028 225.356033,437.701965 224.189362,451.809570 
	C218.392883,451.809570 213.109497,451.809570 207.329315,451.809570 
	C207.569214,448.522858 207.793762,445.446503 208.043610,441.911011 
z"/>
<path fill="#FF5A5A" opacity="1.000000" stroke="none" 
	d="
M272.663452,114.277512 
	C271.843933,115.608276 271.056671,116.951714 269.888916,117.540573 
	C251.669708,126.727982 224.847260,123.932281 212.278793,100.037834 
	C199.682053,76.089638 218.526550,46.262512 246.730652,45.075890 
	C256.036499,44.684372 264.900238,46.276108 273.275757,51.849285 
	C270.920288,56.590755 268.657959,61.144711 266.214417,66.063484 
	C258.250916,61.779564 249.931763,60.089237 241.679260,63.508858 
	C237.597397,65.200256 233.529755,68.235664 230.847702,71.731079 
	C224.687057,79.760040 225.669174,90.276291 232.317291,97.893387 
	C239.784058,106.448471 252.425613,107.899452 266.180176,101.303101 
	C268.276520,105.482239 270.397583,109.710693 272.663452,114.277512 
z"/>
<path fill="#FF6752" opacity="1.000000" stroke="none" 
	d="
M135.842133,271.100891 
	C136.753235,271.542145 138.125809,271.871948 138.220581,271.651764 
	C139.664169,268.298157 140.939774,264.872284 142.256271,261.463928 
	C144.899475,254.620712 144.974075,254.581100 152.804245,256.090546 
	C153.772079,266.704620 154.749924,277.428497 155.767868,288.591980 
	C153.217743,288.591980 150.856018,288.591980 148.199677,288.591980 
	C147.649933,283.106171 147.101379,277.632294 146.552826,272.158386 
	C146.185165,272.114410 145.817490,272.070435 145.449829,272.026459 
	C143.929184,276.323303 142.574966,280.690582 140.801300,284.880280 
	C140.144089,286.432770 138.501923,287.568329 137.308945,288.894012 
	C136.076706,287.632751 134.352722,286.582123 133.705292,285.070404 
	C131.834229,280.701538 130.396561,276.147064 127.823013,271.767365 
	C127.314751,277.285950 126.806480,282.804535 126.267609,288.655365 
	C123.848587,288.655365 121.641556,288.655365 118.729553,288.655365 
	C119.605499,278.358002 120.402138,268.147583 121.460976,257.964447 
	C121.557823,257.033051 123.437134,255.480911 124.308617,255.594833 
	C126.489243,255.879913 129.633194,256.349274 130.479156,257.833862 
	C132.756088,261.829742 134.034470,266.394592 135.842133,271.100891 
z"/>
<path fill="#FF6650" opacity="1.000000" stroke="none" 
	d="
M327.289368,260.778717 
	C332.403534,267.627533 332.846710,274.624420 328.814209,281.608307 
	C325.328674,287.644836 319.656464,290.195496 312.768616,289.539062 
	C305.334045,288.830475 299.547302,283.556427 298.098419,276.580536 
	C296.399506,268.400574 299.721069,260.702576 306.577301,256.930176 
	C313.363525,253.196289 320.603149,254.461685 327.289368,260.778717 
M322.988373,274.080536 
	C322.740143,271.969177 322.879395,269.716370 322.170105,267.773285 
	C320.140656,262.213745 313.411438,260.403015 309.256775,264.275696 
	C305.575562,267.707092 305.222687,272.082886 306.749664,276.643616 
	C308.004944,280.392853 310.771179,282.108704 314.707031,282.090668 
	C319.551483,282.068451 321.753510,279.104584 322.988373,274.080536 
z"/>
<path fill="#FF6651" opacity="1.000000" stroke="none" 
	d="
M260.300903,281.235779 
	C260.297638,283.982788 260.297638,286.289581 260.297638,288.765869 
	C257.608521,288.765869 255.349106,288.765869 252.897186,288.765869 
	C252.897186,277.757599 252.897186,266.997284 252.897186,255.280716 
	C258.303711,255.553238 263.639069,255.191711 268.687164,256.228638 
	C275.753845,257.680206 277.990723,267.354584 272.842773,272.615448 
	C271.812500,273.668304 270.522400,274.466888 269.128540,275.557678 
	C272.605408,279.759369 276.057587,283.931213 279.583038,288.191620 
	C268.933197,292.473114 266.839661,282.651642 261.237335,277.580963 
	C260.856812,278.891754 260.580475,279.843658 260.300903,281.235779 
M266.211487,262.853455 
	C264.422760,262.451385 262.634033,262.049316 260.499237,261.569458 
	C260.499237,264.854767 260.499237,267.282959 260.499237,269.674744 
	C266.829468,270.487152 267.974060,269.281219 266.211487,262.853455 
z"/>
<path fill="#FF654F" opacity="1.000000" stroke="none" 
	d="
M320.088989,199.775879 
	C330.666992,202.316010 335.949646,210.373154 333.881958,220.244583 
	C331.815948,230.107803 322.391357,234.621490 307.936523,232.529388 
	C307.936523,221.811783 307.936523,211.059784 307.936523,199.712967 
	C311.903107,199.712967 315.789093,199.712967 320.088989,199.775879 
M320.963715,207.388123 
	C319.282684,206.995804 317.601654,206.603485 315.631104,206.143600 
	C315.631104,213.157059 315.631104,219.467972 315.631104,226.061279 
	C320.523438,226.155334 323.700348,224.270996 325.238678,220.067719 
	C327.035004,215.159439 325.869781,210.981827 320.963715,207.388123 
z"/>
<path fill="#FF6853" opacity="1.000000" stroke="none" 
	d="
M272.011292,223.980194 
	C271.162384,222.952011 270.521759,222.217468 269.089661,220.575485 
	C269.089661,225.181274 269.089661,228.840775 269.089661,232.743103 
	C266.181671,232.743103 263.940369,232.743103 261.386902,232.743103 
	C261.386902,221.751343 261.386902,210.892502 261.386902,199.602936 
	C265.896240,199.602936 270.180115,199.437134 274.445312,199.648178 
	C278.978302,199.872482 282.565399,201.943604 283.700623,206.583237 
	C284.803558,211.090790 283.830566,215.176575 279.696411,218.002060 
	C279.154968,218.372116 278.638794,218.779175 277.656006,219.505096 
	C281.136353,223.751114 284.539062,227.902451 288.037842,232.170975 
	C279.985321,234.201599 279.985321,234.201599 272.011292,223.980194 
M272.088318,214.090546 
	C275.166748,213.694412 276.831238,211.558929 275.651459,209.013184 
	C274.822113,207.223679 272.095642,206.313385 270.216309,205.010483 
	C269.688202,205.432693 269.160095,205.854889 268.631958,206.277100 
	C270.692566,208.646805 265.923981,212.489120 272.088318,214.090546 
z"/>
<path fill="#FF6853" opacity="1.000000" stroke="none" 
	d="
M364.779449,282.259460 
	C363.335632,280.460938 362.113190,278.947693 360.166504,276.537872 
	C360.166504,281.120239 360.166504,284.646179 360.166504,288.595032 
	C357.338776,288.595032 354.990021,288.595032 352.353149,288.595032 
	C352.353149,277.789917 352.353149,267.050415 352.353149,255.269791 
	C357.761047,255.562927 363.275055,255.178299 368.457184,256.311432 
	C375.317902,257.811676 377.414093,267.191925 372.502533,272.457245 
	C371.498749,273.533325 370.229279,274.361603 368.717529,275.603851 
	C372.157684,279.786591 375.572357,283.938324 379.065491,288.185486 
	C372.133972,290.998871 368.114746,287.832123 364.779449,282.259460 
M364.747650,269.738800 
	C365.295715,267.762085 366.794098,265.328094 366.124786,263.937195 
	C365.454163,262.543579 362.619537,262.191315 360.733398,261.382660 
	C360.473541,261.751312 360.213715,262.119934 359.953857,262.488586 
	C361.447754,264.903656 356.236847,270.433105 364.747650,269.738800 
z"/>
<path fill="#FF6853" opacity="1.000000" stroke="none" 
	d="
M206.076752,264.084045 
	C206.076752,261.117706 206.076752,258.638092 206.076752,255.715485 
	C211.028198,255.715485 215.643143,255.512970 220.231537,255.775177 
	C224.417923,256.014374 227.574738,258.258148 228.659927,262.408813 
	C229.782806,266.703583 228.973557,270.688263 225.240524,273.637360 
	C224.480698,274.237610 223.697525,274.808289 222.695053,275.566650 
	C226.187103,279.817047 229.545624,283.904938 233.448853,288.655792 
	C229.048721,288.661194 225.196457,290.716614 222.152649,286.662476 
	C219.795944,283.523529 217.358749,280.445007 214.085419,276.212097 
	C214.085419,281.170776 214.085419,284.721252 214.085419,288.638306 
	C211.372864,288.638306 209.134567,288.638306 206.076752,288.638306 
	C206.076752,280.721436 206.076752,272.646088 206.076752,264.084045 
M218.763474,262.255341 
	C217.341675,262.087616 215.919891,261.919861 214.186493,261.715332 
	C214.186493,264.687134 214.186493,267.235138 214.186493,270.964386 
	C216.701569,269.806335 219.165588,269.378326 220.258850,267.921570 
	C220.995285,266.940277 219.795593,264.505920 218.763474,262.255341 
z"/>
<path fill="#FF6550" opacity="1.000000" stroke="none" 
	d="
M233.726593,211.204529 
	C236.639587,218.475693 239.401535,225.392395 242.275116,232.588654 
	C237.653564,233.311340 233.588501,234.189117 232.331329,228.285370 
	C232.161453,227.487656 230.758621,226.491455 229.845505,226.400238 
	C227.206375,226.136658 224.519333,226.401276 221.862976,226.250107 
	C217.919785,226.025681 218.764252,230.159958 216.943573,231.434143 
	C214.942719,232.834427 211.998642,232.886902 208.064148,233.880524 
	C210.560226,227.574158 212.472214,222.703796 214.415115,217.845779 
	C216.390594,212.906250 218.489319,208.013550 220.349762,203.031494 
	C221.269485,200.568558 222.475418,199.296967 225.384155,199.327789 
	C228.221710,199.357864 229.587326,200.374817 230.404221,202.992706 
	C231.242783,205.680023 232.500977,208.236404 233.726593,211.204529 
M223.140137,219.612183 
	C224.919037,219.612183 226.697937,219.612183 229.140335,219.612183 
	C227.887009,216.297089 226.851715,213.558701 225.816422,210.820312 
	C225.435410,210.844208 225.054398,210.868088 224.673386,210.891983 
	C223.930328,213.686920 223.187256,216.481857 223.140137,219.612183 
z"/>
<path fill="#FF6752" opacity="1.000000" stroke="none" 
	d="
M190.418259,204.381866 
	C189.394501,207.376480 188.080490,208.013367 185.110474,207.174225 
	C178.087677,205.189957 172.102539,208.530289 171.022476,214.425293 
	C169.708496,221.597107 176.181656,227.329071 183.951950,225.817001 
	C185.393219,225.536560 186.780197,224.977142 188.508881,224.449921 
	C189.499084,226.433502 190.436264,228.310837 191.327408,230.095978 
	C185.139633,235.745499 173.153015,234.120956 167.465714,228.152496 
	C161.507477,221.899719 160.738571,213.239273 165.862411,206.356827 
	C171.123825,199.289612 182.002167,196.528885 189.130875,200.655075 
	C189.989517,201.152069 190.133881,202.883087 190.418259,204.381866 
z"/>
<path fill="#FF6954" opacity="1.000000" stroke="none" 
	d="
M176.070709,281.894287 
	C176.070709,272.974152 176.070709,264.541840 176.070709,255.764099 
	C178.748184,255.764099 180.981384,255.764099 183.573517,255.764099 
	C183.573517,266.742096 183.573517,277.581451 183.573517,288.723206 
	C181.223816,288.723206 178.983704,288.723206 176.070709,288.723206 
	C176.070709,286.579407 176.070709,284.480774 176.070709,281.894287 
z"/>
<path fill="#FFFBFB" opacity="1.000000" stroke="none" 
	d="
M322.940186,274.489594 
	C321.753510,279.104584 319.551483,282.068451 314.707031,282.090668 
	C310.771179,282.108704 308.004944,280.392853 306.749664,276.643616 
	C305.222687,272.082886 305.575562,267.707092 309.256775,264.275696 
	C313.411438,260.403015 320.140656,262.213745 322.170105,267.773285 
	C322.879395,269.716370 322.740143,271.969177 322.940186,274.489594 
z"/>
<path fill="#FFF4F3" opacity="1.000000" stroke="none" 
	d="
M266.485840,263.127808 
	C267.974060,269.281219 266.829468,270.487152 260.499237,269.674744 
	C260.499237,267.282959 260.499237,264.854767 260.499237,261.569458 
	C262.634033,262.049316 264.422760,262.451385 266.485840,263.127808 
z"/>
<path fill="#FFF6F4" opacity="1.000000" stroke="none" 
	d="
M321.278503,207.595978 
	C325.869781,210.981827 327.035004,215.159439 325.238678,220.067719 
	C323.700348,224.270996 320.523438,226.155334 315.631104,226.061279 
	C315.631104,219.467972 315.631104,213.157059 315.631104,206.143600 
	C317.601654,206.603485 319.282684,206.995804 321.278503,207.595978 
z"/>
<path fill="#FFFDFD" opacity="1.000000" stroke="none" 
	d="
M271.655762,214.125504 
	C265.923981,212.489120 270.692566,208.646805 268.631958,206.277100 
	C269.160095,205.854889 269.688202,205.432693 270.216309,205.010483 
	C272.095642,206.313385 274.822113,207.223679 275.651459,209.013184 
	C276.831238,211.558929 275.166748,213.694412 271.655762,214.125504 
z"/>
<path fill="#FFFDFD" opacity="1.000000" stroke="none" 
	d="
M364.338257,269.853973 
	C356.236847,270.433105 361.447754,264.903656 359.953857,262.488586 
	C360.213715,262.119934 360.473541,261.751312 360.733398,261.382660 
	C362.619537,262.191315 365.454163,262.543579 366.124786,263.937195 
	C366.794098,265.328094 365.295715,267.762085 364.338257,269.853973 
z"/>
<path fill="#FFFDFD" opacity="1.000000" stroke="none" 
	d="
M219.112762,262.488464 
	C219.795593,264.505920 220.995285,266.940277 220.258850,267.921570 
	C219.165588,269.378326 216.701569,269.806335 214.186493,270.964386 
	C214.186493,267.235138 214.186493,264.687134 214.186493,261.715332 
	C215.919891,261.919861 217.341675,262.087616 219.112762,262.488464 
z"/>
<path fill="#FFE9E6" opacity="1.000000" stroke="none" 
	d="
M222.792175,219.444489 
	C223.187256,216.481857 223.930328,213.686920 224.673386,210.891983 
	C225.054398,210.868088 225.435410,210.844208 225.816422,210.820312 
	C226.851715,213.558701 227.887009,216.297089 229.140335,219.612183 
	C226.697937,219.612183 224.919037,219.612183 222.792175,219.444489 
z"/>
</svg>