<svg version="1.1" id="Layer_1" xmlns="http://www.w3.org/2000/svg" xmlns:xlink="http://www.w3.org/1999/xlink" x="0px" y="0px"
	 width="100%" viewBox="0 0 500 500" enable-background="new 0 0 500 500" xml:space="preserve">
<path fill="#918BEE" opacity="1.000000" stroke="none" 
	d="
M501.000000,143.000000 
	C501.000000,262.666626 501.000000,381.833282 501.000000,500.999939 
	C334.333405,500.999939 167.666809,500.999939 1.000153,500.999969 
	C1.000102,334.333435 1.000102,167.666885 1.000051,1.000243 
	C167.666519,1.000162 334.333038,1.000162 500.999756,1.000081 
	C501.000000,48.166668 501.000000,95.333336 501.000000,143.000000 
M74.336823,158.499939 
	C74.336823,268.552582 74.336823,378.605255 74.336823,488.550415 
	C191.713608,488.550415 308.086761,488.550415 424.873962,488.550415 
	C424.873962,486.107239 424.873962,484.129272 424.873962,482.151337 
	C424.873962,326.666107 424.874268,171.180893 424.872925,15.695668 
	C424.872864,8.843558 424.865692,8.834977 418.190277,8.834870 
	C305.867615,8.833075 193.544952,8.833231 81.222282,8.834410 
	C74.343498,8.834481 74.337524,8.840116 74.337311,16.013355 
	C74.335861,63.175541 74.337196,110.337723 74.336823,158.499939 
z"/>
<path fill="#FBFAFE" opacity="1.000000" stroke="none" 
	d="
M74.337219,157.999924 
	C74.337196,110.337723 74.335861,63.175541 74.337311,16.013355 
	C74.337524,8.840116 74.343498,8.834481 81.222282,8.834410 
	C193.544952,8.833231 305.867615,8.833075 418.190277,8.834870 
	C424.865692,8.834977 424.872864,8.843558 424.872925,15.695668 
	C424.874268,171.180893 424.873962,326.666107 424.873962,482.151337 
	C424.873962,484.129272 424.873962,486.107239 424.873962,488.550415 
	C308.086761,488.550415 191.713608,488.550415 74.336823,488.550415 
	C74.336823,378.605255 74.336823,268.552582 74.337219,157.999924 
M81.642502,470.480713 
	C81.642693,471.813934 81.642296,473.147125 81.643181,474.480347 
	C81.648125,481.988892 81.648232,481.991577 89.187515,481.991608 
	C196.341690,481.992188 303.495880,481.994019 410.650055,481.978271 
	C412.894196,481.977936 415.138336,481.772644 417.369263,481.663605 
	C417.369263,326.170410 417.369263,171.281418 417.369263,15.869157 
	C414.822510,15.869157 412.685913,15.869157 410.549347,15.869157 
	C303.395172,15.869162 196.240982,15.868843 89.086807,15.869874 
	C81.647758,15.869946 81.643745,15.874613 81.643677,23.539585 
	C81.642372,172.188919 81.642097,320.838257 81.642502,470.480713 
z"/>
<path fill="#938EEE" opacity="1.000000" stroke="none" 
	d="
M81.642059,469.984161 
	C81.642097,320.838257 81.642372,172.188919 81.643677,23.539585 
	C81.643745,15.874613 81.647758,15.869946 89.086807,15.869874 
	C196.240982,15.868843 303.395172,15.869162 410.549347,15.869157 
	C412.685913,15.869157 414.822510,15.869157 417.369263,15.869157 
	C417.369263,171.281418 417.369263,326.170410 417.369263,481.663605 
	C415.138336,481.772644 412.894196,481.977936 410.650055,481.978271 
	C303.495880,481.994019 196.341690,481.992188 89.187515,481.991608 
	C81.648232,481.991577 81.648125,481.988892 81.643181,474.480347 
	C81.642296,473.147125 81.642693,471.813934 81.642059,469.984161 
M264.500000,465.134186 
	C309.548401,465.134186 354.596832,465.134186 399.609985,465.134186 
	C399.609985,320.231323 399.609985,176.349380 399.609985,32.373356 
	C298.603394,32.373356 197.952133,32.373356 97.336678,32.373356 
	C97.336678,176.764969 97.336678,320.648865 97.336678,465.134430 
	C152.958313,465.134430 208.229156,465.134430 264.500000,465.134186 
z"/>
<path fill="#FFFFFF" opacity="1.000000" stroke="none" 
	d="
M264.000000,465.134308 
	C208.229156,465.134430 152.958313,465.134430 97.336678,465.134430 
	C97.336678,320.648865 97.336678,176.764969 97.336678,32.373356 
	C197.952133,32.373356 298.603394,32.373356 399.609985,32.373356 
	C399.609985,176.349380 399.609985,320.231323 399.609985,465.134186 
	C354.596832,465.134186 309.548401,465.134186 264.000000,465.134308 
M260.857697,388.311279 
	C256.890442,398.568695 252.923172,408.826111 248.532944,420.177094 
	C244.085098,408.674683 240.122543,398.438812 236.168777,388.199554 
	C231.913605,377.179657 231.906601,377.477905 220.250061,377.065948 
	C214.969162,376.879303 213.456421,378.719269 213.077972,383.693848 
	C211.676010,402.122223 209.859482,420.518860 208.242935,438.931274 
	C207.872971,443.145081 207.679489,447.374390 207.378128,452.006042 
	C211.856064,452.006042 215.695267,451.719147 219.471634,452.083527 
	C223.581375,452.480072 224.634735,450.535065 224.797577,446.956757 
	C225.070053,440.969147 225.558655,434.989624 226.044357,429.013885 
	C226.558426,422.689117 227.175308,416.372742 227.747269,410.052704 
	C229.466522,411.866974 230.206039,413.685181 230.853470,415.535614 
	C234.647827,426.380066 238.575562,437.181915 242.115356,448.109222 
	C243.326981,451.849457 245.837219,451.708862 248.733063,451.741333 
	C251.507965,451.772430 253.835739,451.807617 254.904663,448.271545 
	C257.022949,441.264099 259.603271,434.395416 262.030121,427.482544 
	C264.087250,421.622894 266.197205,415.781799 268.283783,409.932495 
	C268.657104,409.981995 269.030396,410.031494 269.403687,410.081024 
	C270.558960,423.913910 271.714233,437.746796 272.879730,451.701904 
	C278.776184,451.701904 284.027618,451.701904 289.531952,451.701904 
	C289.531952,449.952301 289.641968,448.495697 289.515381,447.059967 
	C287.657898,425.994354 285.733185,404.934662 283.908295,383.866302 
	C283.332520,377.219269 283.445587,377.209473 276.505676,377.201019 
	C265.208832,377.187286 265.208832,377.187286 260.857697,388.311279 
M255.166779,121.972374 
	C261.612610,121.155670 267.773315,119.616684 273.184723,115.249451 
	C270.792877,110.505188 268.579315,106.114517 266.416260,101.824089 
	C248.099304,107.500084 237.850983,105.774147 230.974960,96.147659 
	C225.305420,88.210274 225.149750,78.371185 231.567795,70.724884 
	C234.302917,67.466316 238.390137,64.793320 242.400681,63.270588 
	C250.408691,60.230080 258.401489,61.931576 266.206207,66.055550 
	C268.650238,61.182102 270.922791,56.650528 273.311493,51.887360 
	C264.701202,46.162457 255.646683,44.270077 246.207458,45.161320 
	C230.488098,46.645535 218.466919,54.251949 211.724686,68.821045 
	C205.473709,82.328560 207.439316,95.223854 216.657150,106.726173 
	C226.245605,118.691017 239.026001,123.520294 255.166779,121.972374 
M134.010132,266.371490 
	C133.114838,264.042938 131.948090,261.778015 131.384140,259.371796 
	C130.392502,255.140747 127.249229,254.576675 124.169861,255.603867 
	C122.733971,256.082855 121.694275,258.812408 121.176933,260.712921 
	C120.531425,263.084259 120.580315,265.650330 120.381210,268.136444 
	C119.841667,274.873352 119.329498,281.612488 118.779327,288.700439 
	C121.577568,288.700439 123.662079,288.700439 126.232094,288.700439 
	C126.777328,283.086212 127.315346,277.546204 127.853371,272.006226 
	C130.189560,275.708618 131.389221,279.645721 133.068893,283.366150 
	C133.983292,285.391510 135.712616,287.048889 137.074402,288.872253 
	C138.555267,286.978516 140.422989,285.268463 141.429276,283.149353 
	C143.071594,279.690857 144.152100,275.965576 145.469635,272.352875 
	C145.831787,272.420654 146.193924,272.488434 146.556076,272.556183 
	C147.103775,277.892029 147.651489,283.227875 148.205444,288.624786 
	C150.903992,288.624786 153.120895,288.624786 155.804199,288.624786 
	C154.898468,278.965607 154.076889,269.722473 153.131592,260.492035 
	C152.919815,258.424164 153.930298,255.495255 150.132019,255.338196 
	C147.002945,255.208817 144.297348,255.195831 143.083160,259.076538 
	C141.620590,263.751160 139.604919,268.252716 137.342377,274.082153 
	C135.944641,270.908081 135.104202,268.999542 134.010132,266.371490 
M329.029724,281.358307 
	C329.583679,280.151733 330.287720,278.990387 330.667145,277.731201 
	C333.065002,269.773407 329.982330,261.410797 323.187408,257.241028 
	C316.953217,253.415359 308.731628,254.267349 303.292267,259.302765 
	C295.820404,266.219727 295.854553,278.894531 303.362976,285.568970 
	C310.965698,292.327271 321.806580,290.796539 329.029724,281.358307 
M270.536835,277.219604 
	C268.096893,274.678223 271.150909,274.308014 272.187683,273.307953 
	C275.226959,270.376312 276.207581,266.930023 275.262756,262.864838 
	C274.320312,258.809784 271.591797,256.443756 267.673645,255.940842 
	C263.575500,255.414841 259.390839,255.400208 255.251144,255.490219 
	C254.364105,255.509506 252.763123,256.925385 252.749954,257.718781 
	C252.579636,267.987305 252.637177,278.259583 252.637177,288.680878 
	C255.439407,288.680878 257.675842,288.680878 260.077606,288.680878 
	C260.372375,285.063293 260.641632,281.758514 260.988251,277.504730 
	C266.937866,282.714508 269.037811,292.518799 279.469025,288.134338 
	C276.582458,284.603333 273.774292,281.168274 270.536835,277.219604 
M283.688324,206.267090 
	C282.661560,204.787491 281.841553,202.257523 280.572723,202.007767 
	C274.664642,200.844833 268.637421,200.262939 262.634155,199.658707 
	C262.203827,199.615402 261.186768,201.054184 261.179565,201.810883 
	C261.081329,212.075012 261.113525,222.340393 261.113525,232.569458 
	C264.095154,232.569458 266.311768,232.569458 269.015442,232.569458 
	C269.015442,228.731720 269.015442,225.326447 269.015442,221.015244 
	C275.161560,225.951187 277.052216,236.536209 287.950165,232.113419 
	C284.516113,227.866425 281.222137,223.792664 277.614502,219.331024 
	C283.033722,216.603546 284.662201,212.374390 283.688324,206.267090 
M366.313202,284.284424 
	C369.029175,289.555115 373.462524,289.720032 379.193329,288.416473 
	C375.580658,283.951111 372.296204,279.891418 368.880615,275.669647 
	C370.236389,274.504883 371.435455,273.643707 372.431488,272.590515 
	C377.358612,267.380585 375.409637,257.995331 368.595856,256.376617 
	C363.432343,255.149933 357.899109,255.479507 352.391357,255.107147 
	C352.391357,266.945740 352.391357,277.670166 352.391357,288.673706 
	C354.923370,288.673706 357.132080,288.673706 359.681580,288.673706 
	C359.848663,284.854614 360.002380,281.340149 360.213562,276.513123 
	C362.667450,279.622009 364.277435,281.661774 366.313202,284.284424 
M213.929108,282.735840 
	C214.007645,281.079620 214.086182,279.423401 214.224777,276.500671 
	C217.504745,280.692169 219.902054,283.660461 222.193741,286.708160 
	C225.137100,290.622467 228.888519,288.699768 233.476349,288.720673 
	C229.537979,283.879364 226.231262,279.814545 222.845627,275.652710 
	C224.303253,274.407990 225.537338,273.542938 226.540604,272.463379 
	C230.108551,268.624207 229.946854,261.806946 226.285629,258.378296 
	C223.541443,255.808441 209.996964,253.155807 207.820679,255.823761 
	C205.939255,258.130280 206.375931,262.462555 206.123123,265.923859 
	C205.881134,269.236877 206.070877,272.581451 206.070877,275.912140 
	C206.070877,280.163452 206.070892,284.414764 206.070892,289.062836 
	C209.191025,288.909332 211.406540,288.800323 213.928711,288.676239 
	C213.928711,286.569031 213.928711,285.085052 213.929108,282.735840 
M326.353149,201.987701 
	C321.032440,201.127945 315.724304,200.161255 310.376556,199.530884 
	C309.628082,199.442673 307.956116,200.992737 307.942719,201.804703 
	C307.774200,212.029022 307.832123,222.257095 307.832123,232.345673 
	C320.978271,234.549011 329.283936,231.364288 332.905579,223.144409 
	C336.165833,215.744583 333.958038,208.004440 326.353149,201.987701 
M221.141769,226.255554 
	C223.306747,226.242523 225.529175,225.921875 227.618790,226.312241 
	C229.339264,226.633667 232.000015,227.472092 232.348160,228.644394 
	C234.002029,234.213547 237.696503,233.310928 242.266052,232.452591 
	C238.209946,222.398499 234.440292,212.649033 230.258804,203.079514 
	C229.542679,201.440628 227.063370,199.603455 225.408813,199.613144 
	C223.721878,199.623016 221.233719,201.437057 220.504303,203.084564 
	C216.733429,211.601624 213.394852,220.310989 209.960739,228.975174 
	C209.517883,230.092514 209.395813,231.337006 209.132004,232.492538 
	C214.048019,233.869293 217.419312,233.161758 218.592743,227.983826 
	C218.737549,227.344910 219.716690,226.895050 221.141769,226.255554 
M174.738007,223.913528 
	C170.885925,220.549561 169.527786,216.405563 172.068970,211.862381 
	C175.911240,204.993134 182.286285,206.448990 188.276154,207.761963 
	C192.181931,201.930176 191.569122,200.462769 184.938049,199.229507 
	C177.136993,197.778656 169.434921,200.899170 165.273834,207.196503 
	C161.414917,213.036545 161.419357,219.900543 165.285675,225.494202 
	C169.777908,231.993378 177.434723,234.865128 185.497055,233.074707 
	C191.995667,231.631516 192.454224,230.030716 189.123856,226.141083 
	C183.598831,225.422028 179.493561,224.887741 174.738007,223.913528 
M176.064880,262.629333 
	C176.064880,271.219604 176.064880,279.809845 176.064880,288.682617 
	C178.911087,288.682617 181.119720,288.682617 183.935135,288.682617 
	C183.935135,279.437042 183.940063,270.511719 183.933533,261.586426 
	C183.928543,254.762711 183.058228,254.145615 176.065002,256.379242 
	C176.065002,258.057800 176.065002,259.865814 176.064880,262.629333 
z"/>
<path fill="#938DEE" opacity="1.000000" stroke="none" 
	d="
M260.975189,387.942566 
	C265.208832,377.187286 265.208832,377.187286 276.505676,377.201019 
	C283.445587,377.209473 283.332520,377.219269 283.908295,383.866302 
	C285.733185,404.934662 287.657898,425.994354 289.515381,447.059967 
	C289.641968,448.495697 289.531952,449.952301 289.531952,451.701904 
	C284.027618,451.701904 278.776184,451.701904 272.879730,451.701904 
	C271.714233,437.746796 270.558960,423.913910 269.403687,410.081024 
	C269.030396,410.031494 268.657104,409.981995 268.283783,409.932495 
	C266.197205,415.781799 264.087250,421.622894 262.030121,427.482544 
	C259.603271,434.395416 257.022949,441.264099 254.904663,448.271545 
	C253.835739,451.807617 251.507965,451.772430 248.733063,451.741333 
	C245.837219,451.708862 243.326981,451.849457 242.115356,448.109222 
	C238.575562,437.181915 234.647827,426.380066 230.853470,415.535614 
	C230.206039,413.685181 229.466522,411.866974 227.747269,410.052704 
	C227.175308,416.372742 226.558426,422.689117 226.044357,429.013885 
	C225.558655,434.989624 225.070053,440.969147 224.797577,446.956757 
	C224.634735,450.535065 223.581375,452.480072 219.471634,452.083527 
	C215.695267,451.719147 211.856064,452.006042 207.378128,452.006042 
	C207.679489,447.374390 207.872971,443.145081 208.242935,438.931274 
	C209.859482,420.518860 211.676010,402.122223 213.077972,383.693848 
	C213.456421,378.719269 214.969162,376.879303 220.250061,377.065948 
	C231.906601,377.477905 231.913605,377.179657 236.168777,388.199554 
	C240.122543,398.438812 244.085098,408.674683 248.532944,420.177094 
	C252.923172,408.826111 256.890442,398.568695 260.975189,387.942566 
z"/>
<path fill="#938DEE" opacity="1.000000" stroke="none" 
	d="
M254.702377,122.000992 
	C239.026001,123.520294 226.245605,118.691017 216.657150,106.726173 
	C207.439316,95.223854 205.473709,82.328560 211.724686,68.821045 
	C218.466919,54.251949 230.488098,46.645535 246.207458,45.161320 
	C255.646683,44.270077 264.701202,46.162457 273.311493,51.887360 
	C270.922791,56.650528 268.650238,61.182102 266.206207,66.055550 
	C258.401489,61.931576 250.408691,60.230080 242.400681,63.270588 
	C238.390137,64.793320 234.302917,67.466316 231.567795,70.724884 
	C225.149750,78.371185 225.305420,88.210274 230.974960,96.147659 
	C237.850983,105.774147 248.099304,107.500084 266.416260,101.824089 
	C268.579315,106.114517 270.792877,110.505188 273.184723,115.249451 
	C267.773315,119.616684 261.612610,121.155670 254.702377,122.000992 
z"/>
<path fill="#958FEF" opacity="1.000000" stroke="none" 
	d="
M134.136948,266.731262 
	C135.104202,268.999542 135.944641,270.908081 137.342377,274.082153 
	C139.604919,268.252716 141.620590,263.751160 143.083160,259.076538 
	C144.297348,255.195831 147.002945,255.208817 150.132019,255.338196 
	C153.930298,255.495255 152.919815,258.424164 153.131592,260.492035 
	C154.076889,269.722473 154.898468,278.965607 155.804199,288.624786 
	C153.120895,288.624786 150.903992,288.624786 148.205444,288.624786 
	C147.651489,283.227875 147.103775,277.892029 146.556076,272.556183 
	C146.193924,272.488434 145.831787,272.420654 145.469635,272.352875 
	C144.152100,275.965576 143.071594,279.690857 141.429276,283.149353 
	C140.422989,285.268463 138.555267,286.978516 137.074402,288.872253 
	C135.712616,287.048889 133.983292,285.391510 133.068893,283.366150 
	C131.389221,279.645721 130.189560,275.708618 127.853371,272.006226 
	C127.315346,277.546204 126.777328,283.086212 126.232094,288.700439 
	C123.662079,288.700439 121.577568,288.700439 118.779327,288.700439 
	C119.329498,281.612488 119.841667,274.873352 120.381210,268.136444 
	C120.580315,265.650330 120.531425,263.084259 121.176933,260.712921 
	C121.694275,258.812408 122.733971,256.082855 124.169861,255.603867 
	C127.249229,254.576675 130.392502,255.140747 131.384140,259.371796 
	C131.948090,261.778015 133.114838,264.042938 134.136948,266.731262 
z"/>
<path fill="#948EEF" opacity="1.000000" stroke="none" 
	d="
M328.839233,281.678467 
	C321.806580,290.796539 310.965698,292.327271 303.362976,285.568970 
	C295.854553,278.894531 295.820404,266.219727 303.292267,259.302765 
	C308.731628,254.267349 316.953217,253.415359 323.187408,257.241028 
	C329.982330,261.410797 333.065002,269.773407 330.667145,277.731201 
	C330.287720,278.990387 329.583679,280.151733 328.839233,281.678467 
M306.400818,275.681885 
	C307.795441,280.355927 310.921051,282.526733 315.775543,281.993622 
	C320.373901,281.488647 322.264862,278.266449 322.921936,274.205017 
	C323.944824,267.881927 320.524323,262.762939 315.203247,262.318481 
	C309.776337,261.865143 306.065247,266.138550 306.027222,272.909882 
	C306.023499,273.572083 306.137115,274.234985 306.400818,275.681885 
z"/>
<path fill="#948FEF" opacity="1.000000" stroke="none" 
	d="
M270.751495,277.476410 
	C273.774292,281.168274 276.582458,284.603333 279.469025,288.134338 
	C269.037811,292.518799 266.937866,282.714508 260.988251,277.504730 
	C260.641632,281.758514 260.372375,285.063293 260.077606,288.680878 
	C257.675842,288.680878 255.439407,288.680878 252.637177,288.680878 
	C252.637177,278.259583 252.579636,267.987305 252.749954,257.718781 
	C252.763123,256.925385 254.364105,255.509506 255.251144,255.490219 
	C259.390839,255.400208 263.575500,255.414841 267.673645,255.940842 
	C271.591797,256.443756 274.320312,258.809784 275.262756,262.864838 
	C276.207581,266.930023 275.226959,270.376312 272.187683,273.307953 
	C271.150909,274.308014 268.096893,274.678223 270.751495,277.476410 
M264.826965,269.867157 
	C267.746368,268.509094 268.237427,266.034058 266.656677,263.741364 
	C265.865906,262.594482 263.553070,262.497040 261.928650,261.924957 
	C261.355347,263.635315 260.510284,265.308624 260.271057,267.064484 
	C259.890961,269.853973 261.664978,270.446899 264.826965,269.867157 
z"/>
<path fill="#9690EF" opacity="1.000000" stroke="none" 
	d="
M283.780212,206.661636 
	C284.662201,212.374390 283.033722,216.603546 277.614502,219.331024 
	C281.222137,223.792664 284.516113,227.866425 287.950165,232.113419 
	C277.052216,236.536209 275.161560,225.951187 269.015442,221.015244 
	C269.015442,225.326447 269.015442,228.731720 269.015442,232.569458 
	C266.311768,232.569458 264.095154,232.569458 261.113525,232.569458 
	C261.113525,222.340393 261.081329,212.075012 261.179565,201.810883 
	C261.186768,201.054184 262.203827,199.615402 262.634155,199.658707 
	C268.637421,200.262939 274.664642,200.844833 280.572723,202.007767 
	C281.841553,202.257523 282.661560,204.787491 283.780212,206.661636 
M270.452728,214.015640 
	C273.777893,214.254181 276.311493,213.134094 275.780273,209.404785 
	C275.253021,205.703339 272.431396,205.604462 268.786682,206.338654 
	C269.097870,208.989059 269.375732,211.355621 270.452728,214.015640 
z"/>
<path fill="#9690EF" opacity="1.000000" stroke="none" 
	d="
M366.100311,283.992981 
	C364.277435,281.661774 362.667450,279.622009 360.213562,276.513123 
	C360.002380,281.340149 359.848663,284.854614 359.681580,288.673706 
	C357.132080,288.673706 354.923370,288.673706 352.391357,288.673706 
	C352.391357,277.670166 352.391357,266.945740 352.391357,255.107147 
	C357.899109,255.479507 363.432343,255.149933 368.595856,256.376617 
	C375.409637,257.995331 377.358612,267.380585 372.431488,272.590515 
	C371.435455,273.643707 370.236389,274.504883 368.880615,275.669647 
	C372.296204,279.891418 375.580658,283.951111 379.193329,288.416473 
	C373.462524,289.720032 369.029175,289.555115 366.100311,283.992981 
M360.001434,263.829926 
	C360.001434,265.762970 360.001434,267.696045 360.001434,271.139160 
	C362.890259,269.657135 365.086365,269.063965 366.376068,267.646240 
	C367.031738,266.925507 366.516479,263.776672 365.719330,263.387604 
	C364.171509,262.632172 362.051056,263.050110 360.001434,263.829926 
z"/>
<path fill="#9690EF" opacity="1.000000" stroke="none" 
	d="
M213.928909,283.168457 
	C213.928711,285.085052 213.928711,286.569031 213.928711,288.676239 
	C211.406540,288.800323 209.191025,288.909332 206.070892,289.062836 
	C206.070892,284.414764 206.070877,280.163452 206.070877,275.912140 
	C206.070877,272.581451 205.881134,269.236877 206.123123,265.923859 
	C206.375931,262.462555 205.939255,258.130280 207.820679,255.823761 
	C209.996964,253.155807 223.541443,255.808441 226.285629,258.378296 
	C229.946854,261.806946 230.108551,268.624207 226.540604,272.463379 
	C225.537338,273.542938 224.303253,274.407990 222.845627,275.652710 
	C226.231262,279.814545 229.537979,283.879364 233.476349,288.720673 
	C228.888519,288.699768 225.137100,290.622467 222.193741,286.708160 
	C219.902054,283.660461 217.504745,280.692169 214.224777,276.500671 
	C214.086182,279.423401 214.007645,281.079620 213.928909,283.168457 
M220.477798,264.059235 
	C218.631592,263.203003 216.785385,262.346802 214.277695,261.183807 
	C214.277695,264.893097 214.277695,267.282532 214.277695,269.640808 
	C219.823792,270.123749 220.300110,269.747803 220.477798,264.059235 
z"/>
<path fill="#938EEE" opacity="1.000000" stroke="none" 
	d="
M326.668518,202.186005 
	C333.958038,208.004440 336.165833,215.744583 332.905579,223.144409 
	C329.283936,231.364288 320.978271,234.549011 307.832123,232.345673 
	C307.832123,222.257095 307.774200,212.029022 307.942719,201.804703 
	C307.956116,200.992737 309.628082,199.442673 310.376556,199.530884 
	C315.724304,200.161255 321.032440,201.127945 326.668518,202.186005 
M321.808228,224.567276 
	C326.108459,220.324173 327.170074,216.126053 324.921661,211.662003 
	C323.034485,207.915100 320.070099,206.074539 315.557434,206.665771 
	C315.557434,213.163986 315.557434,219.371262 315.557434,226.252396 
	C317.747742,225.746277 319.442169,225.354752 321.808228,224.567276 
z"/>
<path fill="#948EEF" opacity="1.000000" stroke="none" 
	d="
M220.725494,226.306580 
	C219.716690,226.895050 218.737549,227.344910 218.592743,227.983826 
	C217.419312,233.161758 214.048019,233.869293 209.132004,232.492538 
	C209.395813,231.337006 209.517883,230.092514 209.960739,228.975174 
	C213.394852,220.310989 216.733429,211.601624 220.504303,203.084564 
	C221.233719,201.437057 223.721878,199.623016 225.408813,199.613144 
	C227.063370,199.603455 229.542679,201.440628 230.258804,203.079514 
	C234.440292,212.649033 238.209946,222.398499 242.266052,232.452591 
	C237.696503,233.310928 234.002029,234.213547 232.348160,228.644394 
	C232.000015,227.472092 229.339264,226.633667 227.618790,226.312241 
	C225.529175,225.921875 223.306747,226.242523 220.725494,226.306580 
M224.610977,211.897964 
	C223.750534,214.289719 222.890106,216.681473 221.895844,219.445206 
	C224.598587,219.445206 226.493805,219.445206 229.680084,219.445206 
	C227.795013,216.231339 226.372559,213.806183 224.610977,211.897964 
z"/>
<path fill="#958FEF" opacity="1.000000" stroke="none" 
	d="
M175.063141,224.133484 
	C179.493561,224.887741 183.598831,225.422028 189.123856,226.141083 
	C192.454224,230.030716 191.995667,231.631516 185.497055,233.074707 
	C177.434723,234.865128 169.777908,231.993378 165.285675,225.494202 
	C161.419357,219.900543 161.414917,213.036545 165.273834,207.196503 
	C169.434921,200.899170 177.136993,197.778656 184.938049,199.229507 
	C191.569122,200.462769 192.181931,201.930176 188.276154,207.761963 
	C182.286285,206.448990 175.911240,204.993134 172.068970,211.862381 
	C169.527786,216.405563 170.885925,220.549561 175.063141,224.133484 
z"/>
<path fill="#9791EF" opacity="1.000000" stroke="none" 
	d="
M176.064941,262.151581 
	C176.065002,259.865814 176.065002,258.057800 176.065002,256.379242 
	C183.058228,254.145615 183.928543,254.762711 183.933533,261.586426 
	C183.940063,270.511719 183.935135,279.437042 183.935135,288.682617 
	C181.119720,288.682617 178.911087,288.682617 176.064880,288.682617 
	C176.064880,279.809845 176.064880,271.219604 176.064941,262.151581 
z"/>
<path fill="#FDFCFF" opacity="1.000000" stroke="none" 
	d="
M306.298523,275.289734 
	C306.137115,274.234985 306.023499,273.572083 306.027222,272.909882 
	C306.065247,266.138550 309.776337,261.865143 315.203247,262.318481 
	C320.524323,262.762939 323.944824,267.881927 322.921936,274.205017 
	C322.264862,278.266449 320.373901,281.488647 315.775543,281.993622 
	C310.921051,282.526733 307.795441,280.355927 306.298523,275.289734 
z"/>
<path fill="#F8F8FE" opacity="1.000000" stroke="none" 
	d="
M264.431030,269.948181 
	C261.664978,270.446899 259.890961,269.853973 260.271057,267.064484 
	C260.510284,265.308624 261.355347,263.635315 261.928650,261.924957 
	C263.553070,262.497040 265.865906,262.594482 266.656677,263.741364 
	C268.237427,266.034058 267.746368,268.509094 264.431030,269.948181 
z"/>
<path fill="#FFFFFF" opacity="1.000000" stroke="none" 
	d="
M270.053162,213.868927 
	C269.375732,211.355621 269.097870,208.989059 268.786682,206.338654 
	C272.431396,205.604462 275.253021,205.703339 275.780273,209.404785 
	C276.311493,213.134094 273.777893,214.254181 270.053162,213.868927 
z"/>
<path fill="#FFFFFF" opacity="1.000000" stroke="none" 
	d="
M360.084656,263.405945 
	C362.051056,263.050110 364.171509,262.632172 365.719330,263.387604 
	C366.516479,263.776672 367.031738,266.925507 366.376068,267.646240 
	C365.086365,269.063965 362.890259,269.657135 360.001434,271.139160 
	C360.001434,267.696045 360.001434,265.762970 360.084656,263.405945 
z"/>
<path fill="#FFFFFF" opacity="1.000000" stroke="none" 
	d="
M220.628937,264.433777 
	C220.300110,269.747803 219.823792,270.123749 214.277695,269.640808 
	C214.277695,267.282532 214.277695,264.893097 214.277695,261.183807 
	C216.785385,262.346802 218.631592,263.203003 220.628937,264.433777 
z"/>
<path fill="#F8F8FE" opacity="1.000000" stroke="none" 
	d="
M321.472412,224.765244 
	C319.442169,225.354752 317.747742,225.746277 315.557434,226.252396 
	C315.557434,219.371262 315.557434,213.163986 315.557434,206.665771 
	C320.070099,206.074539 323.034485,207.915100 324.921661,211.662003 
	C327.170074,216.126053 326.108459,220.324173 321.472412,224.765244 
z"/>
<path fill="#F0EFFD" opacity="1.000000" stroke="none" 
	d="
M224.780533,211.639496 
	C226.372559,213.806183 227.795013,216.231339 229.680084,219.445206 
	C226.493805,219.445206 224.598587,219.445206 221.895844,219.445206 
	C222.890106,216.681473 223.750534,214.289719 224.780533,211.639496 
z"/>
</svg>